<mxfile host="app.diagrams.net" agent="Mozilla/5.0 (Windows NT 10.0; Win64; x64) AppleWebKit/537.36 (KHTML, like Gecko) Chrome/129.0.0.0 Safari/537.36" version="24.7.17">
  <diagram name="Page-1" id="qYUwq6dk4QfvOTdoUQRt">
    <mxGraphModel dx="1430" dy="817" grid="1" gridSize="10" guides="1" tooltips="1" connect="1" arrows="1" fold="1" page="1" pageScale="1" pageWidth="850" pageHeight="1100" math="0" shadow="0">
      <root>
        <mxCell id="0" />
        <mxCell id="1" parent="0" />
        <mxCell id="so-aNgLEseivFY0fF_Gj-1" value="" style="group" vertex="1" connectable="0" parent="1">
          <mxGeometry x="10" y="100" width="160" height="470.5" as="geometry" />
        </mxCell>
        <mxCell id="4Lj_0Oteww-xZW9DmsWf-154" value="Database" style="rounded=0;whiteSpace=wrap;html=1;" parent="so-aNgLEseivFY0fF_Gj-1" vertex="1">
          <mxGeometry x="20" y="90" width="120" height="60" as="geometry" />
        </mxCell>
        <mxCell id="4Lj_0Oteww-xZW9DmsWf-155" value="Table" style="rounded=0;whiteSpace=wrap;html=1;" parent="so-aNgLEseivFY0fF_Gj-1" vertex="1">
          <mxGeometry x="20" y="220" width="120" height="60" as="geometry" />
        </mxCell>
        <mxCell id="4Lj_0Oteww-xZW9DmsWf-156" value="Query/Slice of the table" style="rounded=0;whiteSpace=wrap;html=1;" parent="so-aNgLEseivFY0fF_Gj-1" vertex="1">
          <mxGeometry x="20" y="410.5" width="120" height="60" as="geometry" />
        </mxCell>
        <mxCell id="4Lj_0Oteww-xZW9DmsWf-158" value="Data Concepts" style="text;html=1;align=center;verticalAlign=middle;whiteSpace=wrap;rounded=0;fontSize=19;" parent="so-aNgLEseivFY0fF_Gj-1" vertex="1">
          <mxGeometry width="160" height="60" as="geometry" />
        </mxCell>
        <mxCell id="so-aNgLEseivFY0fF_Gj-2" value="" style="group" vertex="1" connectable="0" parent="1">
          <mxGeometry x="610" y="100" width="160" height="470.5" as="geometry" />
        </mxCell>
        <mxCell id="4Lj_0Oteww-xZW9DmsWf-148" value="Data Source" style="rounded=0;whiteSpace=wrap;html=1;" parent="so-aNgLEseivFY0fF_Gj-2" vertex="1">
          <mxGeometry x="20" y="90" width="120" height="60" as="geometry" />
        </mxCell>
        <mxCell id="4Lj_0Oteww-xZW9DmsWf-149" value="Data Asset" style="rounded=0;whiteSpace=wrap;html=1;" parent="so-aNgLEseivFY0fF_Gj-2" vertex="1">
          <mxGeometry x="20" y="220" width="120" height="60" as="geometry" />
        </mxCell>
        <mxCell id="4Lj_0Oteww-xZW9DmsWf-150" value="Batch Definition" style="rounded=0;whiteSpace=wrap;html=1;" parent="so-aNgLEseivFY0fF_Gj-2" vertex="1">
          <mxGeometry x="20" y="410.5" width="120" height="60" as="geometry" />
        </mxCell>
        <mxCell id="4Lj_0Oteww-xZW9DmsWf-157" value="GX Concepts" style="text;html=1;align=center;verticalAlign=middle;whiteSpace=wrap;rounded=0;fontSize=19;" parent="so-aNgLEseivFY0fF_Gj-2" vertex="1">
          <mxGeometry width="160" height="60" as="geometry" />
        </mxCell>
        <mxCell id="so-aNgLEseivFY0fF_Gj-3" value="" style="group" vertex="1" connectable="0" parent="1">
          <mxGeometry x="210" y="190" width="376" height="426" as="geometry" />
        </mxCell>
        <mxCell id="4Lj_0Oteww-xZW9DmsWf-118" style="edgeStyle=orthogonalEdgeStyle;rounded=0;orthogonalLoop=1;jettySize=auto;html=1;" parent="so-aNgLEseivFY0fF_Gj-3" source="4Lj_0Oteww-xZW9DmsWf-1" target="4Lj_0Oteww-xZW9DmsWf-54" edge="1">
          <mxGeometry relative="1" as="geometry" />
        </mxCell>
        <mxCell id="4Lj_0Oteww-xZW9DmsWf-119" style="edgeStyle=orthogonalEdgeStyle;rounded=0;orthogonalLoop=1;jettySize=auto;html=1;" parent="so-aNgLEseivFY0fF_Gj-3" source="4Lj_0Oteww-xZW9DmsWf-1" target="4Lj_0Oteww-xZW9DmsWf-67" edge="1">
          <mxGeometry relative="1" as="geometry" />
        </mxCell>
        <mxCell id="4Lj_0Oteww-xZW9DmsWf-120" style="edgeStyle=orthogonalEdgeStyle;rounded=0;orthogonalLoop=1;jettySize=auto;html=1;" parent="so-aNgLEseivFY0fF_Gj-3" source="4Lj_0Oteww-xZW9DmsWf-1" target="4Lj_0Oteww-xZW9DmsWf-41" edge="1">
          <mxGeometry relative="1" as="geometry" />
        </mxCell>
        <mxCell id="4Lj_0Oteww-xZW9DmsWf-1" value="" style="image;html=1;image=img/lib/clip_art/computers/Database_128x128.png" parent="so-aNgLEseivFY0fF_Gj-3" vertex="1">
          <mxGeometry x="148" width="80" height="80" as="geometry" />
        </mxCell>
        <mxCell id="4Lj_0Oteww-xZW9DmsWf-41" value="Table" style="shape=table;startSize=30;container=1;collapsible=0;childLayout=tableLayout;strokeColor=default;fontSize=16;" parent="so-aNgLEseivFY0fF_Gj-3" vertex="1">
          <mxGeometry x="10" y="130" width="96" height="80" as="geometry" />
        </mxCell>
        <mxCell id="4Lj_0Oteww-xZW9DmsWf-42" value="" style="shape=tableRow;horizontal=0;startSize=0;swimlaneHead=0;swimlaneBody=0;strokeColor=inherit;top=0;left=0;bottom=0;right=0;collapsible=0;dropTarget=0;fillColor=none;points=[[0,0.5],[1,0.5]];portConstraint=eastwest;fontSize=16;" parent="4Lj_0Oteww-xZW9DmsWf-41" vertex="1">
          <mxGeometry y="30" width="96" height="17" as="geometry" />
        </mxCell>
        <mxCell id="4Lj_0Oteww-xZW9DmsWf-43" value="" style="shape=partialRectangle;html=1;whiteSpace=wrap;connectable=0;strokeColor=inherit;overflow=hidden;fillColor=none;top=0;left=0;bottom=0;right=0;pointerEvents=1;fontSize=16;" parent="4Lj_0Oteww-xZW9DmsWf-42" vertex="1">
          <mxGeometry width="32" height="17" as="geometry">
            <mxRectangle width="32" height="17" as="alternateBounds" />
          </mxGeometry>
        </mxCell>
        <mxCell id="4Lj_0Oteww-xZW9DmsWf-44" value="" style="shape=partialRectangle;html=1;whiteSpace=wrap;connectable=0;strokeColor=inherit;overflow=hidden;fillColor=none;top=0;left=0;bottom=0;right=0;pointerEvents=1;fontSize=16;" parent="4Lj_0Oteww-xZW9DmsWf-42" vertex="1">
          <mxGeometry x="32" width="32" height="17" as="geometry">
            <mxRectangle width="32" height="17" as="alternateBounds" />
          </mxGeometry>
        </mxCell>
        <mxCell id="4Lj_0Oteww-xZW9DmsWf-45" value="" style="shape=partialRectangle;html=1;whiteSpace=wrap;connectable=0;strokeColor=inherit;overflow=hidden;fillColor=none;top=0;left=0;bottom=0;right=0;pointerEvents=1;fontSize=16;" parent="4Lj_0Oteww-xZW9DmsWf-42" vertex="1">
          <mxGeometry x="64" width="32" height="17" as="geometry">
            <mxRectangle width="32" height="17" as="alternateBounds" />
          </mxGeometry>
        </mxCell>
        <mxCell id="4Lj_0Oteww-xZW9DmsWf-46" value="" style="shape=tableRow;horizontal=0;startSize=0;swimlaneHead=0;swimlaneBody=0;strokeColor=inherit;top=0;left=0;bottom=0;right=0;collapsible=0;dropTarget=0;fillColor=none;points=[[0,0.5],[1,0.5]];portConstraint=eastwest;fontSize=16;" parent="4Lj_0Oteww-xZW9DmsWf-41" vertex="1">
          <mxGeometry y="47" width="96" height="16" as="geometry" />
        </mxCell>
        <mxCell id="4Lj_0Oteww-xZW9DmsWf-47" value="" style="shape=partialRectangle;html=1;whiteSpace=wrap;connectable=0;strokeColor=inherit;overflow=hidden;fillColor=none;top=0;left=0;bottom=0;right=0;pointerEvents=1;fontSize=16;" parent="4Lj_0Oteww-xZW9DmsWf-46" vertex="1">
          <mxGeometry width="32" height="16" as="geometry">
            <mxRectangle width="32" height="16" as="alternateBounds" />
          </mxGeometry>
        </mxCell>
        <mxCell id="4Lj_0Oteww-xZW9DmsWf-48" value="" style="shape=partialRectangle;html=1;whiteSpace=wrap;connectable=0;strokeColor=inherit;overflow=hidden;fillColor=none;top=0;left=0;bottom=0;right=0;pointerEvents=1;fontSize=16;" parent="4Lj_0Oteww-xZW9DmsWf-46" vertex="1">
          <mxGeometry x="32" width="32" height="16" as="geometry">
            <mxRectangle width="32" height="16" as="alternateBounds" />
          </mxGeometry>
        </mxCell>
        <mxCell id="4Lj_0Oteww-xZW9DmsWf-49" value="" style="shape=partialRectangle;html=1;whiteSpace=wrap;connectable=0;strokeColor=inherit;overflow=hidden;fillColor=none;top=0;left=0;bottom=0;right=0;pointerEvents=1;fontSize=16;" parent="4Lj_0Oteww-xZW9DmsWf-46" vertex="1">
          <mxGeometry x="64" width="32" height="16" as="geometry">
            <mxRectangle width="32" height="16" as="alternateBounds" />
          </mxGeometry>
        </mxCell>
        <mxCell id="4Lj_0Oteww-xZW9DmsWf-50" value="" style="shape=tableRow;horizontal=0;startSize=0;swimlaneHead=0;swimlaneBody=0;strokeColor=inherit;top=0;left=0;bottom=0;right=0;collapsible=0;dropTarget=0;fillColor=none;points=[[0,0.5],[1,0.5]];portConstraint=eastwest;fontSize=16;" parent="4Lj_0Oteww-xZW9DmsWf-41" vertex="1">
          <mxGeometry y="63" width="96" height="17" as="geometry" />
        </mxCell>
        <mxCell id="4Lj_0Oteww-xZW9DmsWf-51" value="" style="shape=partialRectangle;html=1;whiteSpace=wrap;connectable=0;strokeColor=inherit;overflow=hidden;fillColor=none;top=0;left=0;bottom=0;right=0;pointerEvents=1;fontSize=16;" parent="4Lj_0Oteww-xZW9DmsWf-50" vertex="1">
          <mxGeometry width="32" height="17" as="geometry">
            <mxRectangle width="32" height="17" as="alternateBounds" />
          </mxGeometry>
        </mxCell>
        <mxCell id="4Lj_0Oteww-xZW9DmsWf-52" value="" style="shape=partialRectangle;html=1;whiteSpace=wrap;connectable=0;strokeColor=inherit;overflow=hidden;fillColor=none;top=0;left=0;bottom=0;right=0;pointerEvents=1;fontSize=16;" parent="4Lj_0Oteww-xZW9DmsWf-50" vertex="1">
          <mxGeometry x="32" width="32" height="17" as="geometry">
            <mxRectangle width="32" height="17" as="alternateBounds" />
          </mxGeometry>
        </mxCell>
        <mxCell id="4Lj_0Oteww-xZW9DmsWf-53" value="" style="shape=partialRectangle;html=1;whiteSpace=wrap;connectable=0;strokeColor=inherit;overflow=hidden;fillColor=none;top=0;left=0;bottom=0;right=0;pointerEvents=1;fontSize=16;" parent="4Lj_0Oteww-xZW9DmsWf-50" vertex="1">
          <mxGeometry x="64" width="32" height="17" as="geometry">
            <mxRectangle width="32" height="17" as="alternateBounds" />
          </mxGeometry>
        </mxCell>
        <mxCell id="4Lj_0Oteww-xZW9DmsWf-147" style="edgeStyle=orthogonalEdgeStyle;rounded=0;orthogonalLoop=1;jettySize=auto;html=1;" parent="so-aNgLEseivFY0fF_Gj-3" source="4Lj_0Oteww-xZW9DmsWf-54" target="4Lj_0Oteww-xZW9DmsWf-122" edge="1">
          <mxGeometry relative="1" as="geometry" />
        </mxCell>
        <mxCell id="4Lj_0Oteww-xZW9DmsWf-188" style="edgeStyle=orthogonalEdgeStyle;rounded=0;orthogonalLoop=1;jettySize=auto;html=1;exitX=0.5;exitY=0.941;exitDx=0;exitDy=0;exitPerimeter=0;" parent="so-aNgLEseivFY0fF_Gj-3" source="4Lj_0Oteww-xZW9DmsWf-63" target="4Lj_0Oteww-xZW9DmsWf-93" edge="1">
          <mxGeometry relative="1" as="geometry" />
        </mxCell>
        <mxCell id="4Lj_0Oteww-xZW9DmsWf-189" style="edgeStyle=orthogonalEdgeStyle;rounded=0;orthogonalLoop=1;jettySize=auto;html=1;exitX=0.49;exitY=1.059;exitDx=0;exitDy=0;exitPerimeter=0;" parent="so-aNgLEseivFY0fF_Gj-3" source="4Lj_0Oteww-xZW9DmsWf-63" target="4Lj_0Oteww-xZW9DmsWf-163" edge="1">
          <mxGeometry relative="1" as="geometry" />
        </mxCell>
        <mxCell id="4Lj_0Oteww-xZW9DmsWf-54" value="Table" style="shape=table;startSize=30;container=1;collapsible=0;childLayout=tableLayout;strokeColor=default;fontSize=16;" parent="so-aNgLEseivFY0fF_Gj-3" vertex="1">
          <mxGeometry x="140" y="130" width="96" height="80" as="geometry" />
        </mxCell>
        <mxCell id="4Lj_0Oteww-xZW9DmsWf-55" value="" style="shape=tableRow;horizontal=0;startSize=0;swimlaneHead=0;swimlaneBody=0;strokeColor=inherit;top=0;left=0;bottom=0;right=0;collapsible=0;dropTarget=0;fillColor=none;points=[[0,0.5],[1,0.5]];portConstraint=eastwest;fontSize=16;" parent="4Lj_0Oteww-xZW9DmsWf-54" vertex="1">
          <mxGeometry y="30" width="96" height="17" as="geometry" />
        </mxCell>
        <mxCell id="4Lj_0Oteww-xZW9DmsWf-56" value="" style="shape=partialRectangle;html=1;whiteSpace=wrap;connectable=0;strokeColor=inherit;overflow=hidden;fillColor=none;top=0;left=0;bottom=0;right=0;pointerEvents=1;fontSize=16;" parent="4Lj_0Oteww-xZW9DmsWf-55" vertex="1">
          <mxGeometry width="30" height="17" as="geometry">
            <mxRectangle width="30" height="17" as="alternateBounds" />
          </mxGeometry>
        </mxCell>
        <mxCell id="4Lj_0Oteww-xZW9DmsWf-57" value="" style="shape=partialRectangle;html=1;whiteSpace=wrap;connectable=0;strokeColor=inherit;overflow=hidden;fillColor=none;top=0;left=0;bottom=0;right=0;pointerEvents=1;fontSize=16;" parent="4Lj_0Oteww-xZW9DmsWf-55" vertex="1">
          <mxGeometry x="30" width="34" height="17" as="geometry">
            <mxRectangle width="34" height="17" as="alternateBounds" />
          </mxGeometry>
        </mxCell>
        <mxCell id="4Lj_0Oteww-xZW9DmsWf-58" value="" style="shape=partialRectangle;html=1;whiteSpace=wrap;connectable=0;strokeColor=inherit;overflow=hidden;fillColor=none;top=0;left=0;bottom=0;right=0;pointerEvents=1;fontSize=16;" parent="4Lj_0Oteww-xZW9DmsWf-55" vertex="1">
          <mxGeometry x="64" width="32" height="17" as="geometry">
            <mxRectangle width="32" height="17" as="alternateBounds" />
          </mxGeometry>
        </mxCell>
        <mxCell id="4Lj_0Oteww-xZW9DmsWf-59" value="" style="shape=tableRow;horizontal=0;startSize=0;swimlaneHead=0;swimlaneBody=0;strokeColor=inherit;top=0;left=0;bottom=0;right=0;collapsible=0;dropTarget=0;fillColor=none;points=[[0,0.5],[1,0.5]];portConstraint=eastwest;fontSize=16;" parent="4Lj_0Oteww-xZW9DmsWf-54" vertex="1">
          <mxGeometry y="47" width="96" height="16" as="geometry" />
        </mxCell>
        <mxCell id="4Lj_0Oteww-xZW9DmsWf-60" value="" style="shape=partialRectangle;html=1;whiteSpace=wrap;connectable=0;strokeColor=inherit;overflow=hidden;fillColor=none;top=0;left=0;bottom=0;right=0;pointerEvents=1;fontSize=16;" parent="4Lj_0Oteww-xZW9DmsWf-59" vertex="1">
          <mxGeometry width="30" height="16" as="geometry">
            <mxRectangle width="30" height="16" as="alternateBounds" />
          </mxGeometry>
        </mxCell>
        <mxCell id="4Lj_0Oteww-xZW9DmsWf-61" value="" style="shape=partialRectangle;html=1;whiteSpace=wrap;connectable=0;strokeColor=inherit;overflow=hidden;fillColor=none;top=0;left=0;bottom=0;right=0;pointerEvents=1;fontSize=16;" parent="4Lj_0Oteww-xZW9DmsWf-59" vertex="1">
          <mxGeometry x="30" width="34" height="16" as="geometry">
            <mxRectangle width="34" height="16" as="alternateBounds" />
          </mxGeometry>
        </mxCell>
        <mxCell id="4Lj_0Oteww-xZW9DmsWf-62" value="" style="shape=partialRectangle;html=1;whiteSpace=wrap;connectable=0;strokeColor=inherit;overflow=hidden;fillColor=none;top=0;left=0;bottom=0;right=0;pointerEvents=1;fontSize=16;" parent="4Lj_0Oteww-xZW9DmsWf-59" vertex="1">
          <mxGeometry x="64" width="32" height="16" as="geometry">
            <mxRectangle width="32" height="16" as="alternateBounds" />
          </mxGeometry>
        </mxCell>
        <mxCell id="4Lj_0Oteww-xZW9DmsWf-63" value="" style="shape=tableRow;horizontal=0;startSize=0;swimlaneHead=0;swimlaneBody=0;strokeColor=inherit;top=0;left=0;bottom=0;right=0;collapsible=0;dropTarget=0;fillColor=none;points=[[0,0.5],[1,0.5]];portConstraint=eastwest;fontSize=16;" parent="4Lj_0Oteww-xZW9DmsWf-54" vertex="1">
          <mxGeometry y="63" width="96" height="17" as="geometry" />
        </mxCell>
        <mxCell id="4Lj_0Oteww-xZW9DmsWf-64" value="" style="shape=partialRectangle;html=1;whiteSpace=wrap;connectable=0;strokeColor=inherit;overflow=hidden;fillColor=none;top=0;left=0;bottom=0;right=0;pointerEvents=1;fontSize=16;" parent="4Lj_0Oteww-xZW9DmsWf-63" vertex="1">
          <mxGeometry width="30" height="17" as="geometry">
            <mxRectangle width="30" height="17" as="alternateBounds" />
          </mxGeometry>
        </mxCell>
        <mxCell id="4Lj_0Oteww-xZW9DmsWf-65" value="" style="shape=partialRectangle;html=1;whiteSpace=wrap;connectable=0;strokeColor=inherit;overflow=hidden;fillColor=none;top=0;left=0;bottom=0;right=0;pointerEvents=1;fontSize=16;" parent="4Lj_0Oteww-xZW9DmsWf-63" vertex="1">
          <mxGeometry x="30" width="34" height="17" as="geometry">
            <mxRectangle width="34" height="17" as="alternateBounds" />
          </mxGeometry>
        </mxCell>
        <mxCell id="4Lj_0Oteww-xZW9DmsWf-66" value="" style="shape=partialRectangle;html=1;whiteSpace=wrap;connectable=0;strokeColor=inherit;overflow=hidden;fillColor=none;top=0;left=0;bottom=0;right=0;pointerEvents=1;fontSize=16;" parent="4Lj_0Oteww-xZW9DmsWf-63" vertex="1">
          <mxGeometry x="64" width="32" height="17" as="geometry">
            <mxRectangle width="32" height="17" as="alternateBounds" />
          </mxGeometry>
        </mxCell>
        <mxCell id="4Lj_0Oteww-xZW9DmsWf-67" value="Table" style="shape=table;startSize=30;container=1;collapsible=0;childLayout=tableLayout;strokeColor=default;fontSize=16;" parent="so-aNgLEseivFY0fF_Gj-3" vertex="1">
          <mxGeometry x="270" y="130" width="96" height="80" as="geometry" />
        </mxCell>
        <mxCell id="4Lj_0Oteww-xZW9DmsWf-68" value="" style="shape=tableRow;horizontal=0;startSize=0;swimlaneHead=0;swimlaneBody=0;strokeColor=inherit;top=0;left=0;bottom=0;right=0;collapsible=0;dropTarget=0;fillColor=none;points=[[0,0.5],[1,0.5]];portConstraint=eastwest;fontSize=16;" parent="4Lj_0Oteww-xZW9DmsWf-67" vertex="1">
          <mxGeometry y="30" width="96" height="17" as="geometry" />
        </mxCell>
        <mxCell id="4Lj_0Oteww-xZW9DmsWf-69" value="" style="shape=partialRectangle;html=1;whiteSpace=wrap;connectable=0;strokeColor=inherit;overflow=hidden;fillColor=none;top=0;left=0;bottom=0;right=0;pointerEvents=1;fontSize=16;" parent="4Lj_0Oteww-xZW9DmsWf-68" vertex="1">
          <mxGeometry width="32" height="17" as="geometry">
            <mxRectangle width="32" height="17" as="alternateBounds" />
          </mxGeometry>
        </mxCell>
        <mxCell id="4Lj_0Oteww-xZW9DmsWf-70" value="" style="shape=partialRectangle;html=1;whiteSpace=wrap;connectable=0;strokeColor=inherit;overflow=hidden;fillColor=none;top=0;left=0;bottom=0;right=0;pointerEvents=1;fontSize=16;" parent="4Lj_0Oteww-xZW9DmsWf-68" vertex="1">
          <mxGeometry x="32" width="32" height="17" as="geometry">
            <mxRectangle width="32" height="17" as="alternateBounds" />
          </mxGeometry>
        </mxCell>
        <mxCell id="4Lj_0Oteww-xZW9DmsWf-71" value="" style="shape=partialRectangle;html=1;whiteSpace=wrap;connectable=0;strokeColor=inherit;overflow=hidden;fillColor=none;top=0;left=0;bottom=0;right=0;pointerEvents=1;fontSize=16;" parent="4Lj_0Oteww-xZW9DmsWf-68" vertex="1">
          <mxGeometry x="64" width="32" height="17" as="geometry">
            <mxRectangle width="32" height="17" as="alternateBounds" />
          </mxGeometry>
        </mxCell>
        <mxCell id="4Lj_0Oteww-xZW9DmsWf-72" value="" style="shape=tableRow;horizontal=0;startSize=0;swimlaneHead=0;swimlaneBody=0;strokeColor=inherit;top=0;left=0;bottom=0;right=0;collapsible=0;dropTarget=0;fillColor=none;points=[[0,0.5],[1,0.5]];portConstraint=eastwest;fontSize=16;" parent="4Lj_0Oteww-xZW9DmsWf-67" vertex="1">
          <mxGeometry y="47" width="96" height="16" as="geometry" />
        </mxCell>
        <mxCell id="4Lj_0Oteww-xZW9DmsWf-73" value="" style="shape=partialRectangle;html=1;whiteSpace=wrap;connectable=0;strokeColor=inherit;overflow=hidden;fillColor=none;top=0;left=0;bottom=0;right=0;pointerEvents=1;fontSize=16;" parent="4Lj_0Oteww-xZW9DmsWf-72" vertex="1">
          <mxGeometry width="32" height="16" as="geometry">
            <mxRectangle width="32" height="16" as="alternateBounds" />
          </mxGeometry>
        </mxCell>
        <mxCell id="4Lj_0Oteww-xZW9DmsWf-74" value="" style="shape=partialRectangle;html=1;whiteSpace=wrap;connectable=0;strokeColor=inherit;overflow=hidden;fillColor=none;top=0;left=0;bottom=0;right=0;pointerEvents=1;fontSize=16;" parent="4Lj_0Oteww-xZW9DmsWf-72" vertex="1">
          <mxGeometry x="32" width="32" height="16" as="geometry">
            <mxRectangle width="32" height="16" as="alternateBounds" />
          </mxGeometry>
        </mxCell>
        <mxCell id="4Lj_0Oteww-xZW9DmsWf-75" value="" style="shape=partialRectangle;html=1;whiteSpace=wrap;connectable=0;strokeColor=inherit;overflow=hidden;fillColor=none;top=0;left=0;bottom=0;right=0;pointerEvents=1;fontSize=16;" parent="4Lj_0Oteww-xZW9DmsWf-72" vertex="1">
          <mxGeometry x="64" width="32" height="16" as="geometry">
            <mxRectangle width="32" height="16" as="alternateBounds" />
          </mxGeometry>
        </mxCell>
        <mxCell id="4Lj_0Oteww-xZW9DmsWf-76" value="" style="shape=tableRow;horizontal=0;startSize=0;swimlaneHead=0;swimlaneBody=0;strokeColor=inherit;top=0;left=0;bottom=0;right=0;collapsible=0;dropTarget=0;fillColor=none;points=[[0,0.5],[1,0.5]];portConstraint=eastwest;fontSize=16;" parent="4Lj_0Oteww-xZW9DmsWf-67" vertex="1">
          <mxGeometry y="63" width="96" height="17" as="geometry" />
        </mxCell>
        <mxCell id="4Lj_0Oteww-xZW9DmsWf-77" value="" style="shape=partialRectangle;html=1;whiteSpace=wrap;connectable=0;strokeColor=inherit;overflow=hidden;fillColor=none;top=0;left=0;bottom=0;right=0;pointerEvents=1;fontSize=16;" parent="4Lj_0Oteww-xZW9DmsWf-76" vertex="1">
          <mxGeometry width="32" height="17" as="geometry">
            <mxRectangle width="32" height="17" as="alternateBounds" />
          </mxGeometry>
        </mxCell>
        <mxCell id="4Lj_0Oteww-xZW9DmsWf-78" value="" style="shape=partialRectangle;html=1;whiteSpace=wrap;connectable=0;strokeColor=inherit;overflow=hidden;fillColor=none;top=0;left=0;bottom=0;right=0;pointerEvents=1;fontSize=16;" parent="4Lj_0Oteww-xZW9DmsWf-76" vertex="1">
          <mxGeometry x="32" width="32" height="17" as="geometry">
            <mxRectangle width="32" height="17" as="alternateBounds" />
          </mxGeometry>
        </mxCell>
        <mxCell id="4Lj_0Oteww-xZW9DmsWf-79" value="" style="shape=partialRectangle;html=1;whiteSpace=wrap;connectable=0;strokeColor=inherit;overflow=hidden;fillColor=none;top=0;left=0;bottom=0;right=0;pointerEvents=1;fontSize=16;" parent="4Lj_0Oteww-xZW9DmsWf-76" vertex="1">
          <mxGeometry x="64" width="32" height="17" as="geometry">
            <mxRectangle width="32" height="17" as="alternateBounds" />
          </mxGeometry>
        </mxCell>
        <mxCell id="4Lj_0Oteww-xZW9DmsWf-93" value="Table" style="shape=table;startSize=30;container=1;collapsible=0;childLayout=tableLayout;strokeColor=default;fontSize=16;" parent="so-aNgLEseivFY0fF_Gj-3" vertex="1">
          <mxGeometry y="295" width="96" height="131" as="geometry" />
        </mxCell>
        <mxCell id="4Lj_0Oteww-xZW9DmsWf-94" value="" style="shape=tableRow;horizontal=0;startSize=0;swimlaneHead=0;swimlaneBody=0;strokeColor=inherit;top=0;left=0;bottom=0;right=0;collapsible=0;dropTarget=0;fillColor=none;points=[[0,0.5],[1,0.5]];portConstraint=eastwest;fontSize=16;" parent="4Lj_0Oteww-xZW9DmsWf-93" vertex="1">
          <mxGeometry y="30" width="96" height="17" as="geometry" />
        </mxCell>
        <mxCell id="4Lj_0Oteww-xZW9DmsWf-95" value="" style="shape=partialRectangle;html=1;whiteSpace=wrap;connectable=0;strokeColor=#23445d;overflow=hidden;fillColor=#B3B3B3;top=0;left=0;bottom=0;right=0;pointerEvents=1;fontSize=16;" parent="4Lj_0Oteww-xZW9DmsWf-94" vertex="1">
          <mxGeometry width="32" height="17" as="geometry">
            <mxRectangle width="32" height="17" as="alternateBounds" />
          </mxGeometry>
        </mxCell>
        <mxCell id="4Lj_0Oteww-xZW9DmsWf-96" value="" style="shape=partialRectangle;html=1;whiteSpace=wrap;connectable=0;strokeColor=#23445d;overflow=hidden;fillColor=#B3B3B3;top=0;left=0;bottom=0;right=0;pointerEvents=1;fontSize=16;" parent="4Lj_0Oteww-xZW9DmsWf-94" vertex="1">
          <mxGeometry x="32" width="32" height="17" as="geometry">
            <mxRectangle width="32" height="17" as="alternateBounds" />
          </mxGeometry>
        </mxCell>
        <mxCell id="4Lj_0Oteww-xZW9DmsWf-97" value="" style="shape=partialRectangle;html=1;whiteSpace=wrap;connectable=0;strokeColor=#23445d;overflow=hidden;fillColor=#B3B3B3;top=0;left=0;bottom=0;right=0;pointerEvents=1;fontSize=16;" parent="4Lj_0Oteww-xZW9DmsWf-94" vertex="1">
          <mxGeometry x="64" width="32" height="17" as="geometry">
            <mxRectangle width="32" height="17" as="alternateBounds" />
          </mxGeometry>
        </mxCell>
        <mxCell id="4Lj_0Oteww-xZW9DmsWf-98" value="" style="shape=tableRow;horizontal=0;startSize=0;swimlaneHead=0;swimlaneBody=0;strokeColor=inherit;top=0;left=0;bottom=0;right=0;collapsible=0;dropTarget=0;fillColor=none;points=[[0,0.5],[1,0.5]];portConstraint=eastwest;fontSize=16;" parent="4Lj_0Oteww-xZW9DmsWf-93" vertex="1">
          <mxGeometry y="47" width="96" height="16" as="geometry" />
        </mxCell>
        <mxCell id="4Lj_0Oteww-xZW9DmsWf-99" value="" style="shape=partialRectangle;html=1;whiteSpace=wrap;connectable=0;strokeColor=#82b366;overflow=hidden;fillColor=#d5e8d4;top=0;left=0;bottom=0;right=0;pointerEvents=1;fontSize=16;" parent="4Lj_0Oteww-xZW9DmsWf-98" vertex="1">
          <mxGeometry width="32" height="16" as="geometry">
            <mxRectangle width="32" height="16" as="alternateBounds" />
          </mxGeometry>
        </mxCell>
        <mxCell id="4Lj_0Oteww-xZW9DmsWf-100" value="" style="shape=partialRectangle;html=1;whiteSpace=wrap;connectable=0;strokeColor=#82b366;overflow=hidden;fillColor=#d5e8d4;top=0;left=0;bottom=0;right=0;pointerEvents=1;fontSize=16;" parent="4Lj_0Oteww-xZW9DmsWf-98" vertex="1">
          <mxGeometry x="32" width="32" height="16" as="geometry">
            <mxRectangle width="32" height="16" as="alternateBounds" />
          </mxGeometry>
        </mxCell>
        <mxCell id="4Lj_0Oteww-xZW9DmsWf-101" value="" style="shape=partialRectangle;html=1;whiteSpace=wrap;connectable=0;strokeColor=#82b366;overflow=hidden;fillColor=#d5e8d4;top=0;left=0;bottom=0;right=0;pointerEvents=1;fontSize=16;" parent="4Lj_0Oteww-xZW9DmsWf-98" vertex="1">
          <mxGeometry x="64" width="32" height="16" as="geometry">
            <mxRectangle width="32" height="16" as="alternateBounds" />
          </mxGeometry>
        </mxCell>
        <mxCell id="4Lj_0Oteww-xZW9DmsWf-102" value="" style="shape=tableRow;horizontal=0;startSize=0;swimlaneHead=0;swimlaneBody=0;strokeColor=inherit;top=0;left=0;bottom=0;right=0;collapsible=0;dropTarget=0;fillColor=none;points=[[0,0.5],[1,0.5]];portConstraint=eastwest;fontSize=16;" parent="4Lj_0Oteww-xZW9DmsWf-93" vertex="1">
          <mxGeometry y="63" width="96" height="17" as="geometry" />
        </mxCell>
        <mxCell id="4Lj_0Oteww-xZW9DmsWf-103" value="" style="shape=partialRectangle;html=1;whiteSpace=wrap;connectable=0;strokeColor=#82b366;overflow=hidden;fillColor=#d5e8d4;top=0;left=0;bottom=0;right=0;pointerEvents=1;fontSize=16;" parent="4Lj_0Oteww-xZW9DmsWf-102" vertex="1">
          <mxGeometry width="32" height="17" as="geometry">
            <mxRectangle width="32" height="17" as="alternateBounds" />
          </mxGeometry>
        </mxCell>
        <mxCell id="4Lj_0Oteww-xZW9DmsWf-104" value="" style="shape=partialRectangle;html=1;whiteSpace=wrap;connectable=0;strokeColor=#82b366;overflow=hidden;fillColor=#d5e8d4;top=0;left=0;bottom=0;right=0;pointerEvents=1;fontSize=16;" parent="4Lj_0Oteww-xZW9DmsWf-102" vertex="1">
          <mxGeometry x="32" width="32" height="17" as="geometry">
            <mxRectangle width="32" height="17" as="alternateBounds" />
          </mxGeometry>
        </mxCell>
        <mxCell id="4Lj_0Oteww-xZW9DmsWf-105" value="" style="shape=partialRectangle;html=1;whiteSpace=wrap;connectable=0;strokeColor=#82b366;overflow=hidden;fillColor=#d5e8d4;top=0;left=0;bottom=0;right=0;pointerEvents=1;fontSize=16;" parent="4Lj_0Oteww-xZW9DmsWf-102" vertex="1">
          <mxGeometry x="64" width="32" height="17" as="geometry">
            <mxRectangle width="32" height="17" as="alternateBounds" />
          </mxGeometry>
        </mxCell>
        <mxCell id="4Lj_0Oteww-xZW9DmsWf-106" style="shape=tableRow;horizontal=0;startSize=0;swimlaneHead=0;swimlaneBody=0;strokeColor=inherit;top=0;left=0;bottom=0;right=0;collapsible=0;dropTarget=0;fillColor=none;points=[[0,0.5],[1,0.5]];portConstraint=eastwest;fontSize=16;" parent="4Lj_0Oteww-xZW9DmsWf-93" vertex="1">
          <mxGeometry y="80" width="96" height="17" as="geometry" />
        </mxCell>
        <mxCell id="4Lj_0Oteww-xZW9DmsWf-107" style="shape=partialRectangle;html=1;whiteSpace=wrap;connectable=0;strokeColor=#82b366;overflow=hidden;fillColor=#d5e8d4;top=0;left=0;bottom=0;right=0;pointerEvents=1;fontSize=16;" parent="4Lj_0Oteww-xZW9DmsWf-106" vertex="1">
          <mxGeometry width="32" height="17" as="geometry">
            <mxRectangle width="32" height="17" as="alternateBounds" />
          </mxGeometry>
        </mxCell>
        <mxCell id="4Lj_0Oteww-xZW9DmsWf-108" style="shape=partialRectangle;html=1;whiteSpace=wrap;connectable=0;strokeColor=#82b366;overflow=hidden;fillColor=#d5e8d4;top=0;left=0;bottom=0;right=0;pointerEvents=1;fontSize=16;" parent="4Lj_0Oteww-xZW9DmsWf-106" vertex="1">
          <mxGeometry x="32" width="32" height="17" as="geometry">
            <mxRectangle width="32" height="17" as="alternateBounds" />
          </mxGeometry>
        </mxCell>
        <mxCell id="4Lj_0Oteww-xZW9DmsWf-109" style="shape=partialRectangle;html=1;whiteSpace=wrap;connectable=0;strokeColor=#82b366;overflow=hidden;fillColor=#d5e8d4;top=0;left=0;bottom=0;right=0;pointerEvents=1;fontSize=16;" parent="4Lj_0Oteww-xZW9DmsWf-106" vertex="1">
          <mxGeometry x="64" width="32" height="17" as="geometry">
            <mxRectangle width="32" height="17" as="alternateBounds" />
          </mxGeometry>
        </mxCell>
        <mxCell id="4Lj_0Oteww-xZW9DmsWf-110" style="shape=tableRow;horizontal=0;startSize=0;swimlaneHead=0;swimlaneBody=0;strokeColor=inherit;top=0;left=0;bottom=0;right=0;collapsible=0;dropTarget=0;fillColor=none;points=[[0,0.5],[1,0.5]];portConstraint=eastwest;fontSize=16;" parent="4Lj_0Oteww-xZW9DmsWf-93" vertex="1">
          <mxGeometry y="97" width="96" height="17" as="geometry" />
        </mxCell>
        <mxCell id="4Lj_0Oteww-xZW9DmsWf-111" style="shape=partialRectangle;html=1;whiteSpace=wrap;connectable=0;strokeColor=#23445d;overflow=hidden;fillColor=#B3B3B3;top=0;left=0;bottom=0;right=0;pointerEvents=1;fontSize=16;" parent="4Lj_0Oteww-xZW9DmsWf-110" vertex="1">
          <mxGeometry width="32" height="17" as="geometry">
            <mxRectangle width="32" height="17" as="alternateBounds" />
          </mxGeometry>
        </mxCell>
        <mxCell id="4Lj_0Oteww-xZW9DmsWf-112" style="shape=partialRectangle;html=1;whiteSpace=wrap;connectable=0;strokeColor=#23445d;overflow=hidden;fillColor=#B3B3B3;top=0;left=0;bottom=0;right=0;pointerEvents=1;fontSize=16;" parent="4Lj_0Oteww-xZW9DmsWf-110" vertex="1">
          <mxGeometry x="32" width="32" height="17" as="geometry">
            <mxRectangle width="32" height="17" as="alternateBounds" />
          </mxGeometry>
        </mxCell>
        <mxCell id="4Lj_0Oteww-xZW9DmsWf-113" style="shape=partialRectangle;html=1;whiteSpace=wrap;connectable=0;strokeColor=#23445d;overflow=hidden;fillColor=#B3B3B3;top=0;left=0;bottom=0;right=0;pointerEvents=1;fontSize=16;" parent="4Lj_0Oteww-xZW9DmsWf-110" vertex="1">
          <mxGeometry x="64" width="32" height="17" as="geometry">
            <mxRectangle width="32" height="17" as="alternateBounds" />
          </mxGeometry>
        </mxCell>
        <mxCell id="4Lj_0Oteww-xZW9DmsWf-114" style="shape=tableRow;horizontal=0;startSize=0;swimlaneHead=0;swimlaneBody=0;strokeColor=inherit;top=0;left=0;bottom=0;right=0;collapsible=0;dropTarget=0;fillColor=none;points=[[0,0.5],[1,0.5]];portConstraint=eastwest;fontSize=16;" parent="4Lj_0Oteww-xZW9DmsWf-93" vertex="1">
          <mxGeometry y="114" width="96" height="17" as="geometry" />
        </mxCell>
        <mxCell id="4Lj_0Oteww-xZW9DmsWf-115" style="shape=partialRectangle;html=1;whiteSpace=wrap;connectable=0;strokeColor=#23445d;overflow=hidden;fillColor=#B3B3B3;top=0;left=0;bottom=0;right=0;pointerEvents=1;fontSize=16;" parent="4Lj_0Oteww-xZW9DmsWf-114" vertex="1">
          <mxGeometry width="32" height="17" as="geometry">
            <mxRectangle width="32" height="17" as="alternateBounds" />
          </mxGeometry>
        </mxCell>
        <mxCell id="4Lj_0Oteww-xZW9DmsWf-116" style="shape=partialRectangle;html=1;whiteSpace=wrap;connectable=0;strokeColor=#23445d;overflow=hidden;fillColor=#B3B3B3;top=0;left=0;bottom=0;right=0;pointerEvents=1;fontSize=16;" parent="4Lj_0Oteww-xZW9DmsWf-114" vertex="1">
          <mxGeometry x="32" width="32" height="17" as="geometry">
            <mxRectangle width="32" height="17" as="alternateBounds" />
          </mxGeometry>
        </mxCell>
        <mxCell id="4Lj_0Oteww-xZW9DmsWf-117" style="shape=partialRectangle;html=1;whiteSpace=wrap;connectable=0;strokeColor=#23445d;overflow=hidden;fillColor=#B3B3B3;top=0;left=0;bottom=0;right=0;pointerEvents=1;fontSize=16;" parent="4Lj_0Oteww-xZW9DmsWf-114" vertex="1">
          <mxGeometry x="64" width="32" height="17" as="geometry">
            <mxRectangle width="32" height="17" as="alternateBounds" />
          </mxGeometry>
        </mxCell>
        <mxCell id="4Lj_0Oteww-xZW9DmsWf-122" value="Table" style="shape=table;startSize=30;container=1;collapsible=0;childLayout=tableLayout;strokeColor=default;fontSize=16;" parent="so-aNgLEseivFY0fF_Gj-3" vertex="1">
          <mxGeometry x="140" y="295" width="96" height="131" as="geometry" />
        </mxCell>
        <mxCell id="4Lj_0Oteww-xZW9DmsWf-123" value="" style="shape=tableRow;horizontal=0;startSize=0;swimlaneHead=0;swimlaneBody=0;strokeColor=inherit;top=0;left=0;bottom=0;right=0;collapsible=0;dropTarget=0;fillColor=none;points=[[0,0.5],[1,0.5]];portConstraint=eastwest;fontSize=16;" parent="4Lj_0Oteww-xZW9DmsWf-122" vertex="1">
          <mxGeometry y="30" width="96" height="17" as="geometry" />
        </mxCell>
        <mxCell id="4Lj_0Oteww-xZW9DmsWf-124" value="" style="shape=partialRectangle;html=1;whiteSpace=wrap;connectable=0;strokeColor=#23445d;overflow=hidden;fillColor=#B3B3B3;top=0;left=0;bottom=0;right=0;pointerEvents=1;fontSize=16;" parent="4Lj_0Oteww-xZW9DmsWf-123" vertex="1">
          <mxGeometry width="32" height="17" as="geometry">
            <mxRectangle width="32" height="17" as="alternateBounds" />
          </mxGeometry>
        </mxCell>
        <mxCell id="4Lj_0Oteww-xZW9DmsWf-125" value="" style="shape=partialRectangle;html=1;whiteSpace=wrap;connectable=0;strokeColor=#23445d;overflow=hidden;fillColor=#B3B3B3;top=0;left=0;bottom=0;right=0;pointerEvents=1;fontSize=16;" parent="4Lj_0Oteww-xZW9DmsWf-123" vertex="1">
          <mxGeometry x="32" width="32" height="17" as="geometry">
            <mxRectangle width="32" height="17" as="alternateBounds" />
          </mxGeometry>
        </mxCell>
        <mxCell id="4Lj_0Oteww-xZW9DmsWf-126" value="" style="shape=partialRectangle;html=1;whiteSpace=wrap;connectable=0;strokeColor=#23445d;overflow=hidden;fillColor=#B3B3B3;top=0;left=0;bottom=0;right=0;pointerEvents=1;fontSize=16;" parent="4Lj_0Oteww-xZW9DmsWf-123" vertex="1">
          <mxGeometry x="64" width="32" height="17" as="geometry">
            <mxRectangle width="32" height="17" as="alternateBounds" />
          </mxGeometry>
        </mxCell>
        <mxCell id="4Lj_0Oteww-xZW9DmsWf-127" value="" style="shape=tableRow;horizontal=0;startSize=0;swimlaneHead=0;swimlaneBody=0;strokeColor=inherit;top=0;left=0;bottom=0;right=0;collapsible=0;dropTarget=0;fillColor=none;points=[[0,0.5],[1,0.5]];portConstraint=eastwest;fontSize=16;" parent="4Lj_0Oteww-xZW9DmsWf-122" vertex="1">
          <mxGeometry y="47" width="96" height="16" as="geometry" />
        </mxCell>
        <mxCell id="4Lj_0Oteww-xZW9DmsWf-128" value="" style="shape=partialRectangle;html=1;whiteSpace=wrap;connectable=0;strokeColor=#23445d;overflow=hidden;fillColor=#B3B3B3;top=0;left=0;bottom=0;right=0;pointerEvents=1;fontSize=16;" parent="4Lj_0Oteww-xZW9DmsWf-127" vertex="1">
          <mxGeometry width="32" height="16" as="geometry">
            <mxRectangle width="32" height="16" as="alternateBounds" />
          </mxGeometry>
        </mxCell>
        <mxCell id="4Lj_0Oteww-xZW9DmsWf-129" value="" style="shape=partialRectangle;html=1;whiteSpace=wrap;connectable=0;strokeColor=#23445d;overflow=hidden;fillColor=#B3B3B3;top=0;left=0;bottom=0;right=0;pointerEvents=1;fontSize=16;" parent="4Lj_0Oteww-xZW9DmsWf-127" vertex="1">
          <mxGeometry x="32" width="32" height="16" as="geometry">
            <mxRectangle width="32" height="16" as="alternateBounds" />
          </mxGeometry>
        </mxCell>
        <mxCell id="4Lj_0Oteww-xZW9DmsWf-130" value="" style="shape=partialRectangle;html=1;whiteSpace=wrap;connectable=0;strokeColor=#23445d;overflow=hidden;fillColor=#B3B3B3;top=0;left=0;bottom=0;right=0;pointerEvents=1;fontSize=16;" parent="4Lj_0Oteww-xZW9DmsWf-127" vertex="1">
          <mxGeometry x="64" width="32" height="16" as="geometry">
            <mxRectangle width="32" height="16" as="alternateBounds" />
          </mxGeometry>
        </mxCell>
        <mxCell id="4Lj_0Oteww-xZW9DmsWf-131" value="" style="shape=tableRow;horizontal=0;startSize=0;swimlaneHead=0;swimlaneBody=0;strokeColor=inherit;top=0;left=0;bottom=0;right=0;collapsible=0;dropTarget=0;fillColor=none;points=[[0,0.5],[1,0.5]];portConstraint=eastwest;fontSize=16;" parent="4Lj_0Oteww-xZW9DmsWf-122" vertex="1">
          <mxGeometry y="63" width="96" height="17" as="geometry" />
        </mxCell>
        <mxCell id="4Lj_0Oteww-xZW9DmsWf-132" value="" style="shape=partialRectangle;html=1;whiteSpace=wrap;connectable=0;strokeColor=#82b366;overflow=hidden;fillColor=#d5e8d4;top=0;left=0;bottom=0;right=0;pointerEvents=1;fontSize=16;" parent="4Lj_0Oteww-xZW9DmsWf-131" vertex="1">
          <mxGeometry width="32" height="17" as="geometry">
            <mxRectangle width="32" height="17" as="alternateBounds" />
          </mxGeometry>
        </mxCell>
        <mxCell id="4Lj_0Oteww-xZW9DmsWf-133" value="" style="shape=partialRectangle;html=1;whiteSpace=wrap;connectable=0;strokeColor=#82b366;overflow=hidden;fillColor=#d5e8d4;top=0;left=0;bottom=0;right=0;pointerEvents=1;fontSize=16;" parent="4Lj_0Oteww-xZW9DmsWf-131" vertex="1">
          <mxGeometry x="32" width="32" height="17" as="geometry">
            <mxRectangle width="32" height="17" as="alternateBounds" />
          </mxGeometry>
        </mxCell>
        <mxCell id="4Lj_0Oteww-xZW9DmsWf-134" value="" style="shape=partialRectangle;html=1;whiteSpace=wrap;connectable=0;strokeColor=#82b366;overflow=hidden;fillColor=#d5e8d4;top=0;left=0;bottom=0;right=0;pointerEvents=1;fontSize=16;" parent="4Lj_0Oteww-xZW9DmsWf-131" vertex="1">
          <mxGeometry x="64" width="32" height="17" as="geometry">
            <mxRectangle width="32" height="17" as="alternateBounds" />
          </mxGeometry>
        </mxCell>
        <mxCell id="4Lj_0Oteww-xZW9DmsWf-135" style="shape=tableRow;horizontal=0;startSize=0;swimlaneHead=0;swimlaneBody=0;strokeColor=inherit;top=0;left=0;bottom=0;right=0;collapsible=0;dropTarget=0;fillColor=none;points=[[0,0.5],[1,0.5]];portConstraint=eastwest;fontSize=16;" parent="4Lj_0Oteww-xZW9DmsWf-122" vertex="1">
          <mxGeometry y="80" width="96" height="17" as="geometry" />
        </mxCell>
        <mxCell id="4Lj_0Oteww-xZW9DmsWf-136" style="shape=partialRectangle;html=1;whiteSpace=wrap;connectable=0;strokeColor=#82b366;overflow=hidden;fillColor=#d5e8d4;top=0;left=0;bottom=0;right=0;pointerEvents=1;fontSize=16;" parent="4Lj_0Oteww-xZW9DmsWf-135" vertex="1">
          <mxGeometry width="32" height="17" as="geometry">
            <mxRectangle width="32" height="17" as="alternateBounds" />
          </mxGeometry>
        </mxCell>
        <mxCell id="4Lj_0Oteww-xZW9DmsWf-137" style="shape=partialRectangle;html=1;whiteSpace=wrap;connectable=0;strokeColor=#82b366;overflow=hidden;fillColor=#d5e8d4;top=0;left=0;bottom=0;right=0;pointerEvents=1;fontSize=16;" parent="4Lj_0Oteww-xZW9DmsWf-135" vertex="1">
          <mxGeometry x="32" width="32" height="17" as="geometry">
            <mxRectangle width="32" height="17" as="alternateBounds" />
          </mxGeometry>
        </mxCell>
        <mxCell id="4Lj_0Oteww-xZW9DmsWf-138" style="shape=partialRectangle;html=1;whiteSpace=wrap;connectable=0;strokeColor=#82b366;overflow=hidden;fillColor=#d5e8d4;top=0;left=0;bottom=0;right=0;pointerEvents=1;fontSize=16;" parent="4Lj_0Oteww-xZW9DmsWf-135" vertex="1">
          <mxGeometry x="64" width="32" height="17" as="geometry">
            <mxRectangle width="32" height="17" as="alternateBounds" />
          </mxGeometry>
        </mxCell>
        <mxCell id="4Lj_0Oteww-xZW9DmsWf-139" style="shape=tableRow;horizontal=0;startSize=0;swimlaneHead=0;swimlaneBody=0;strokeColor=inherit;top=0;left=0;bottom=0;right=0;collapsible=0;dropTarget=0;fillColor=none;points=[[0,0.5],[1,0.5]];portConstraint=eastwest;fontSize=16;" parent="4Lj_0Oteww-xZW9DmsWf-122" vertex="1">
          <mxGeometry y="97" width="96" height="17" as="geometry" />
        </mxCell>
        <mxCell id="4Lj_0Oteww-xZW9DmsWf-140" style="shape=partialRectangle;html=1;whiteSpace=wrap;connectable=0;strokeColor=#82b366;overflow=hidden;fillColor=#d5e8d4;top=0;left=0;bottom=0;right=0;pointerEvents=1;fontSize=16;" parent="4Lj_0Oteww-xZW9DmsWf-139" vertex="1">
          <mxGeometry width="32" height="17" as="geometry">
            <mxRectangle width="32" height="17" as="alternateBounds" />
          </mxGeometry>
        </mxCell>
        <mxCell id="4Lj_0Oteww-xZW9DmsWf-141" style="shape=partialRectangle;html=1;whiteSpace=wrap;connectable=0;strokeColor=#82b366;overflow=hidden;fillColor=#d5e8d4;top=0;left=0;bottom=0;right=0;pointerEvents=1;fontSize=16;" parent="4Lj_0Oteww-xZW9DmsWf-139" vertex="1">
          <mxGeometry x="32" width="32" height="17" as="geometry">
            <mxRectangle width="32" height="17" as="alternateBounds" />
          </mxGeometry>
        </mxCell>
        <mxCell id="4Lj_0Oteww-xZW9DmsWf-142" style="shape=partialRectangle;html=1;whiteSpace=wrap;connectable=0;strokeColor=#82b366;overflow=hidden;fillColor=#d5e8d4;top=0;left=0;bottom=0;right=0;pointerEvents=1;fontSize=16;" parent="4Lj_0Oteww-xZW9DmsWf-139" vertex="1">
          <mxGeometry x="64" width="32" height="17" as="geometry">
            <mxRectangle width="32" height="17" as="alternateBounds" />
          </mxGeometry>
        </mxCell>
        <mxCell id="4Lj_0Oteww-xZW9DmsWf-143" style="shape=tableRow;horizontal=0;startSize=0;swimlaneHead=0;swimlaneBody=0;strokeColor=inherit;top=0;left=0;bottom=0;right=0;collapsible=0;dropTarget=0;fillColor=none;points=[[0,0.5],[1,0.5]];portConstraint=eastwest;fontSize=16;" parent="4Lj_0Oteww-xZW9DmsWf-122" vertex="1">
          <mxGeometry y="114" width="96" height="17" as="geometry" />
        </mxCell>
        <mxCell id="4Lj_0Oteww-xZW9DmsWf-144" style="shape=partialRectangle;html=1;whiteSpace=wrap;connectable=0;strokeColor=#82b366;overflow=hidden;fillColor=#d5e8d4;top=0;left=0;bottom=0;right=0;pointerEvents=1;fontSize=16;" parent="4Lj_0Oteww-xZW9DmsWf-143" vertex="1">
          <mxGeometry width="32" height="17" as="geometry">
            <mxRectangle width="32" height="17" as="alternateBounds" />
          </mxGeometry>
        </mxCell>
        <mxCell id="4Lj_0Oteww-xZW9DmsWf-145" style="shape=partialRectangle;html=1;whiteSpace=wrap;connectable=0;strokeColor=#82b366;overflow=hidden;fillColor=#d5e8d4;top=0;left=0;bottom=0;right=0;pointerEvents=1;fontSize=16;" parent="4Lj_0Oteww-xZW9DmsWf-143" vertex="1">
          <mxGeometry x="32" width="32" height="17" as="geometry">
            <mxRectangle width="32" height="17" as="alternateBounds" />
          </mxGeometry>
        </mxCell>
        <mxCell id="4Lj_0Oteww-xZW9DmsWf-146" style="shape=partialRectangle;html=1;whiteSpace=wrap;connectable=0;strokeColor=#82b366;overflow=hidden;fillColor=#d5e8d4;top=0;left=0;bottom=0;right=0;pointerEvents=1;fontSize=16;" parent="4Lj_0Oteww-xZW9DmsWf-143" vertex="1">
          <mxGeometry x="64" width="32" height="17" as="geometry">
            <mxRectangle width="32" height="17" as="alternateBounds" />
          </mxGeometry>
        </mxCell>
        <mxCell id="4Lj_0Oteww-xZW9DmsWf-163" value="Table" style="shape=table;startSize=30;container=1;collapsible=0;childLayout=tableLayout;strokeColor=default;fontSize=16;" parent="so-aNgLEseivFY0fF_Gj-3" vertex="1">
          <mxGeometry x="280" y="295" width="96" height="131" as="geometry" />
        </mxCell>
        <mxCell id="4Lj_0Oteww-xZW9DmsWf-164" value="" style="shape=tableRow;horizontal=0;startSize=0;swimlaneHead=0;swimlaneBody=0;strokeColor=inherit;top=0;left=0;bottom=0;right=0;collapsible=0;dropTarget=0;fillColor=none;points=[[0,0.5],[1,0.5]];portConstraint=eastwest;fontSize=16;" parent="4Lj_0Oteww-xZW9DmsWf-163" vertex="1">
          <mxGeometry y="30" width="96" height="17" as="geometry" />
        </mxCell>
        <mxCell id="4Lj_0Oteww-xZW9DmsWf-165" value="" style="shape=partialRectangle;html=1;whiteSpace=wrap;connectable=0;strokeColor=#82b366;overflow=hidden;fillColor=#d5e8d4;top=0;left=0;bottom=0;right=0;pointerEvents=1;fontSize=16;" parent="4Lj_0Oteww-xZW9DmsWf-164" vertex="1">
          <mxGeometry width="32" height="17" as="geometry">
            <mxRectangle width="32" height="17" as="alternateBounds" />
          </mxGeometry>
        </mxCell>
        <mxCell id="4Lj_0Oteww-xZW9DmsWf-166" value="" style="shape=partialRectangle;html=1;whiteSpace=wrap;connectable=0;strokeColor=#82b366;overflow=hidden;fillColor=#d5e8d4;top=0;left=0;bottom=0;right=0;pointerEvents=1;fontSize=16;" parent="4Lj_0Oteww-xZW9DmsWf-164" vertex="1">
          <mxGeometry x="32" width="32" height="17" as="geometry">
            <mxRectangle width="32" height="17" as="alternateBounds" />
          </mxGeometry>
        </mxCell>
        <mxCell id="4Lj_0Oteww-xZW9DmsWf-167" value="" style="shape=partialRectangle;html=1;whiteSpace=wrap;connectable=0;strokeColor=#82b366;overflow=hidden;fillColor=#d5e8d4;top=0;left=0;bottom=0;right=0;pointerEvents=1;fontSize=16;" parent="4Lj_0Oteww-xZW9DmsWf-164" vertex="1">
          <mxGeometry x="64" width="32" height="17" as="geometry">
            <mxRectangle width="32" height="17" as="alternateBounds" />
          </mxGeometry>
        </mxCell>
        <mxCell id="4Lj_0Oteww-xZW9DmsWf-168" value="" style="shape=tableRow;horizontal=0;startSize=0;swimlaneHead=0;swimlaneBody=0;strokeColor=inherit;top=0;left=0;bottom=0;right=0;collapsible=0;dropTarget=0;fillColor=none;points=[[0,0.5],[1,0.5]];portConstraint=eastwest;fontSize=16;" parent="4Lj_0Oteww-xZW9DmsWf-163" vertex="1">
          <mxGeometry y="47" width="96" height="16" as="geometry" />
        </mxCell>
        <mxCell id="4Lj_0Oteww-xZW9DmsWf-169" value="" style="shape=partialRectangle;html=1;whiteSpace=wrap;connectable=0;strokeColor=#82b366;overflow=hidden;fillColor=#d5e8d4;top=0;left=0;bottom=0;right=0;pointerEvents=1;fontSize=16;" parent="4Lj_0Oteww-xZW9DmsWf-168" vertex="1">
          <mxGeometry width="32" height="16" as="geometry">
            <mxRectangle width="32" height="16" as="alternateBounds" />
          </mxGeometry>
        </mxCell>
        <mxCell id="4Lj_0Oteww-xZW9DmsWf-170" value="" style="shape=partialRectangle;html=1;whiteSpace=wrap;connectable=0;strokeColor=#82b366;overflow=hidden;fillColor=#d5e8d4;top=0;left=0;bottom=0;right=0;pointerEvents=1;fontSize=16;" parent="4Lj_0Oteww-xZW9DmsWf-168" vertex="1">
          <mxGeometry x="32" width="32" height="16" as="geometry">
            <mxRectangle width="32" height="16" as="alternateBounds" />
          </mxGeometry>
        </mxCell>
        <mxCell id="4Lj_0Oteww-xZW9DmsWf-171" value="" style="shape=partialRectangle;html=1;whiteSpace=wrap;connectable=0;strokeColor=#82b366;overflow=hidden;fillColor=#d5e8d4;top=0;left=0;bottom=0;right=0;pointerEvents=1;fontSize=16;" parent="4Lj_0Oteww-xZW9DmsWf-168" vertex="1">
          <mxGeometry x="64" width="32" height="16" as="geometry">
            <mxRectangle width="32" height="16" as="alternateBounds" />
          </mxGeometry>
        </mxCell>
        <mxCell id="4Lj_0Oteww-xZW9DmsWf-172" value="" style="shape=tableRow;horizontal=0;startSize=0;swimlaneHead=0;swimlaneBody=0;strokeColor=inherit;top=0;left=0;bottom=0;right=0;collapsible=0;dropTarget=0;fillColor=none;points=[[0,0.5],[1,0.5]];portConstraint=eastwest;fontSize=16;" parent="4Lj_0Oteww-xZW9DmsWf-163" vertex="1">
          <mxGeometry y="63" width="96" height="17" as="geometry" />
        </mxCell>
        <mxCell id="4Lj_0Oteww-xZW9DmsWf-173" value="" style="shape=partialRectangle;html=1;whiteSpace=wrap;connectable=0;strokeColor=#82b366;overflow=hidden;fillColor=#d5e8d4;top=0;left=0;bottom=0;right=0;pointerEvents=1;fontSize=16;" parent="4Lj_0Oteww-xZW9DmsWf-172" vertex="1">
          <mxGeometry width="32" height="17" as="geometry">
            <mxRectangle width="32" height="17" as="alternateBounds" />
          </mxGeometry>
        </mxCell>
        <mxCell id="4Lj_0Oteww-xZW9DmsWf-174" value="" style="shape=partialRectangle;html=1;whiteSpace=wrap;connectable=0;strokeColor=#82b366;overflow=hidden;fillColor=#d5e8d4;top=0;left=0;bottom=0;right=0;pointerEvents=1;fontSize=16;" parent="4Lj_0Oteww-xZW9DmsWf-172" vertex="1">
          <mxGeometry x="32" width="32" height="17" as="geometry">
            <mxRectangle width="32" height="17" as="alternateBounds" />
          </mxGeometry>
        </mxCell>
        <mxCell id="4Lj_0Oteww-xZW9DmsWf-175" value="" style="shape=partialRectangle;html=1;whiteSpace=wrap;connectable=0;strokeColor=#82b366;overflow=hidden;fillColor=#d5e8d4;top=0;left=0;bottom=0;right=0;pointerEvents=1;fontSize=16;" parent="4Lj_0Oteww-xZW9DmsWf-172" vertex="1">
          <mxGeometry x="64" width="32" height="17" as="geometry">
            <mxRectangle width="32" height="17" as="alternateBounds" />
          </mxGeometry>
        </mxCell>
        <mxCell id="4Lj_0Oteww-xZW9DmsWf-176" style="shape=tableRow;horizontal=0;startSize=0;swimlaneHead=0;swimlaneBody=0;strokeColor=inherit;top=0;left=0;bottom=0;right=0;collapsible=0;dropTarget=0;fillColor=none;points=[[0,0.5],[1,0.5]];portConstraint=eastwest;fontSize=16;" parent="4Lj_0Oteww-xZW9DmsWf-163" vertex="1">
          <mxGeometry y="80" width="96" height="17" as="geometry" />
        </mxCell>
        <mxCell id="4Lj_0Oteww-xZW9DmsWf-177" style="shape=partialRectangle;html=1;whiteSpace=wrap;connectable=0;strokeColor=#82b366;overflow=hidden;fillColor=#d5e8d4;top=0;left=0;bottom=0;right=0;pointerEvents=1;fontSize=16;" parent="4Lj_0Oteww-xZW9DmsWf-176" vertex="1">
          <mxGeometry width="32" height="17" as="geometry">
            <mxRectangle width="32" height="17" as="alternateBounds" />
          </mxGeometry>
        </mxCell>
        <mxCell id="4Lj_0Oteww-xZW9DmsWf-178" style="shape=partialRectangle;html=1;whiteSpace=wrap;connectable=0;strokeColor=#82b366;overflow=hidden;fillColor=#d5e8d4;top=0;left=0;bottom=0;right=0;pointerEvents=1;fontSize=16;" parent="4Lj_0Oteww-xZW9DmsWf-176" vertex="1">
          <mxGeometry x="32" width="32" height="17" as="geometry">
            <mxRectangle width="32" height="17" as="alternateBounds" />
          </mxGeometry>
        </mxCell>
        <mxCell id="4Lj_0Oteww-xZW9DmsWf-179" style="shape=partialRectangle;html=1;whiteSpace=wrap;connectable=0;strokeColor=#82b366;overflow=hidden;fillColor=#d5e8d4;top=0;left=0;bottom=0;right=0;pointerEvents=1;fontSize=16;" parent="4Lj_0Oteww-xZW9DmsWf-176" vertex="1">
          <mxGeometry x="64" width="32" height="17" as="geometry">
            <mxRectangle width="32" height="17" as="alternateBounds" />
          </mxGeometry>
        </mxCell>
        <mxCell id="4Lj_0Oteww-xZW9DmsWf-180" style="shape=tableRow;horizontal=0;startSize=0;swimlaneHead=0;swimlaneBody=0;strokeColor=inherit;top=0;left=0;bottom=0;right=0;collapsible=0;dropTarget=0;fillColor=none;points=[[0,0.5],[1,0.5]];portConstraint=eastwest;fontSize=16;" parent="4Lj_0Oteww-xZW9DmsWf-163" vertex="1">
          <mxGeometry y="97" width="96" height="17" as="geometry" />
        </mxCell>
        <mxCell id="4Lj_0Oteww-xZW9DmsWf-181" style="shape=partialRectangle;html=1;whiteSpace=wrap;connectable=0;strokeColor=#82b366;overflow=hidden;fillColor=#d5e8d4;top=0;left=0;bottom=0;right=0;pointerEvents=1;fontSize=16;" parent="4Lj_0Oteww-xZW9DmsWf-180" vertex="1">
          <mxGeometry width="32" height="17" as="geometry">
            <mxRectangle width="32" height="17" as="alternateBounds" />
          </mxGeometry>
        </mxCell>
        <mxCell id="4Lj_0Oteww-xZW9DmsWf-182" style="shape=partialRectangle;html=1;whiteSpace=wrap;connectable=0;strokeColor=#82b366;overflow=hidden;fillColor=#d5e8d4;top=0;left=0;bottom=0;right=0;pointerEvents=1;fontSize=16;" parent="4Lj_0Oteww-xZW9DmsWf-180" vertex="1">
          <mxGeometry x="32" width="32" height="17" as="geometry">
            <mxRectangle width="32" height="17" as="alternateBounds" />
          </mxGeometry>
        </mxCell>
        <mxCell id="4Lj_0Oteww-xZW9DmsWf-183" style="shape=partialRectangle;html=1;whiteSpace=wrap;connectable=0;strokeColor=#82b366;overflow=hidden;fillColor=#d5e8d4;top=0;left=0;bottom=0;right=0;pointerEvents=1;fontSize=16;" parent="4Lj_0Oteww-xZW9DmsWf-180" vertex="1">
          <mxGeometry x="64" width="32" height="17" as="geometry">
            <mxRectangle width="32" height="17" as="alternateBounds" />
          </mxGeometry>
        </mxCell>
        <mxCell id="4Lj_0Oteww-xZW9DmsWf-184" style="shape=tableRow;horizontal=0;startSize=0;swimlaneHead=0;swimlaneBody=0;strokeColor=inherit;top=0;left=0;bottom=0;right=0;collapsible=0;dropTarget=0;fillColor=none;points=[[0,0.5],[1,0.5]];portConstraint=eastwest;fontSize=16;" parent="4Lj_0Oteww-xZW9DmsWf-163" vertex="1">
          <mxGeometry y="114" width="96" height="17" as="geometry" />
        </mxCell>
        <mxCell id="4Lj_0Oteww-xZW9DmsWf-185" style="shape=partialRectangle;html=1;whiteSpace=wrap;connectable=0;strokeColor=#82b366;overflow=hidden;fillColor=#d5e8d4;top=0;left=0;bottom=0;right=0;pointerEvents=1;fontSize=16;" parent="4Lj_0Oteww-xZW9DmsWf-184" vertex="1">
          <mxGeometry width="32" height="17" as="geometry">
            <mxRectangle width="32" height="17" as="alternateBounds" />
          </mxGeometry>
        </mxCell>
        <mxCell id="4Lj_0Oteww-xZW9DmsWf-186" style="shape=partialRectangle;html=1;whiteSpace=wrap;connectable=0;strokeColor=#82b366;overflow=hidden;fillColor=#d5e8d4;top=0;left=0;bottom=0;right=0;pointerEvents=1;fontSize=16;" parent="4Lj_0Oteww-xZW9DmsWf-184" vertex="1">
          <mxGeometry x="32" width="32" height="17" as="geometry">
            <mxRectangle width="32" height="17" as="alternateBounds" />
          </mxGeometry>
        </mxCell>
        <mxCell id="4Lj_0Oteww-xZW9DmsWf-187" style="shape=partialRectangle;html=1;whiteSpace=wrap;connectable=0;strokeColor=#82b366;overflow=hidden;fillColor=#d5e8d4;top=0;left=0;bottom=0;right=0;pointerEvents=1;fontSize=16;" parent="4Lj_0Oteww-xZW9DmsWf-184" vertex="1">
          <mxGeometry x="64" width="32" height="17" as="geometry">
            <mxRectangle width="32" height="17" as="alternateBounds" />
          </mxGeometry>
        </mxCell>
      </root>
    </mxGraphModel>
  </diagram>
</mxfile>
